<svg xmlns="http://www.w3.org/2000/svg" version="1.1" xmlns:xlink="http://www.w3.org/1999/xlink" width="512" height="512" x="0" y="0" viewBox="0 0 512 512" style="enable-background:new 0 0 512 512" xml:space="preserve" class=""><g><path d="M357.41 22.69H154.59c-72.73 0-131.91 59.17-131.91 131.91v202.81c0 72.73 59.17 131.91 131.91 131.91H357.4c72.73 0 131.91-59.17 131.91-131.91V154.59c0-72.73-59.17-131.9-131.9-131.9zm98.57 334.72c0 54.36-44.22 98.58-98.58 98.58H154.59c-54.36 0-98.58-44.22-98.58-98.58V154.59c0-54.36 44.22-98.58 98.58-98.58H357.4c54.36 0 98.58 44.22 98.58 98.58zM389.32 256c0 9.2-7.46 16.67-16.67 16.67h-99.99v99.99c0 9.2-7.46 16.67-16.67 16.67s-16.67-7.46-16.67-16.67v-99.99h-99.99c-9.2 0-16.67-7.46-16.67-16.67s7.46-16.67 16.67-16.67h99.99v-99.99c0-9.2 7.46-16.67 16.67-16.67s16.67 7.46 16.67 16.67v99.99h99.99c9.21 0 16.67 7.47 16.67 16.67z" fill="#000000" opacity="1" data-original="#000000" class=""></path></g></svg>