<svg xmlns="http://www.w3.org/2000/svg" version="1.1" xmlns:xlink="http://www.w3.org/1999/xlink" width="512" height="512" x="0" y="0" viewBox="0 0 512 512" style="enable-background:new 0 0 512 512" xml:space="preserve" class=""><g><path d="M15 90c8.291 0 15-6.709 15-15V30h46c8.291 0 15-6.709 15-15S84.291 0 76 0H15C6.709 0 0 6.709 0 15v60c0 8.291 6.709 15 15 15zM497 0h-61c-8.291 0-15 6.709-15 15s6.709 15 15 15h46v45c0 8.291 6.709 15 15 15s15-6.709 15-15V15c0-8.291-6.709-15-15-15zM15 271h61c8.291 0 15-6.709 15-15s-6.709-15-15-15H30v-45c0-8.291-6.709-15-15-15s-15 6.709-15 15v60c0 8.291 6.709 15 15 15zM497 181c-8.291 0-15 6.709-15 15v45h-46c-8.291 0-15 6.709-15 15s6.709 15 15 15h61c8.291 0 15-6.709 15-15v-60c0-8.291-6.709-15-15-15zM76 60c-8.291 0-15 6.709-15 15v121c0 8.291 6.709 15 15 15s15-6.709 15-15V75c0-8.291-6.709-15-15-15zM136 60c-8.291 0-15 6.709-15 15v91c0 8.291 6.709 15 15 15s15-6.709 15-15V75c0-8.291-6.709-15-15-15zM391 166V75c0-8.291-6.709-15-15-15s-15 6.709-15 15v91c0 8.291 6.709 15 15 15s15-6.709 15-15zM436 211c8.291 0 15-6.709 15-15V75c0-8.291-6.709-15-15-15s-15 6.709-15 15v121c0 8.291 6.709 15 15 15zM151 226v17.578c0 24.858 7.705 48.647 22.266 68.833 24.99 34.512 37.705 70.536 37.734 105.106l.029 19.644c0 19.46 12.548 35.896 29.971 42.085V497c0 8.291 6.709 15 15 15s15-6.709 15-15v-17.754c17.422-6.189 29.971-22.625 29.971-42.085l.029-19.629c.029-34.585 12.744-70.609 37.734-105.136C353.295 292.226 361 268.437 361 243.578V226c0-4.102-1.67-8.027-4.658-10.854C354.906 213.754 319.838 181 256 181s-98.906 32.754-100.342 34.146A14.923 14.923 0 0 0 151 226zm75 15h60c8.291 0 15 6.709 15 15s-6.709 15-15 15h-60c-8.291 0-15-6.709-15-15s6.709-15 15-15zM196 60c-8.291 0-15 6.709-15 15v90.418c8.798-3.602 18.761-6.784 30-9.311V75c0-8.291-6.709-15-15-15zM271 151.932V75c0-8.291-6.709-15-15-15s-15 6.709-15 15v76.932c4.962-.355 9.703-.932 15-.932 5.295 0 10.038.577 15 .932zM316 60c-8.291 0-15 6.709-15 15v81.109c11.235 2.527 21.196 5.713 30 9.318V75c0-8.291-6.709-15-15-15z" fill="#000000" opacity="1" data-original="#000000" class=""></path></g></svg>