<svg xmlns="http://www.w3.org/2000/svg" version="1.1" xmlns:xlink="http://www.w3.org/1999/xlink" width="512" height="512" x="0" y="0" viewBox="0 0 32 32" style="enable-background:new 0 0 512 512" xml:space="preserve" class=""><g><path d="M5 10a1 1 0 0 0 1-1V6h3a1 1 0 0 0 0-2H5a1 1 0 0 0-1 1v4a1 1 0 0 0 1 1zM27 4h-4a1 1 0 0 0 0 2h3v3a1 1 0 0 0 2 0V5a1 1 0 0 0-1-1zM27 22a1 1 0 0 0-1 1v3h-3a1 1 0 0 0 0 2h4a1 1 0 0 0 1-1v-4a1 1 0 0 0-1-1zM9 26H6v-3a1 1 0 0 0-2 0v4a1 1 0 0 0 1 1h4a1 1 0 0 0 0-2zM23 23a1 1 0 0 0 1-1v-3H8v3a1 1 0 0 0 1 1zM27 15h-3v-5a1 1 0 0 0-1-1H9a1 1 0 0 0-1 1v5H5a1 1 0 0 0 0 2h22a1 1 0 0 0 0-2z" fill="#000000" opacity="1" data-original="#000000" class=""></path></g></svg>