<svg width="512" height="512" viewBox="0 0 512 512" fill="none" xmlns="http://www.w3.org/2000/svg">
<g clip-path="url(#clip0_1_4)">
<rect width="512" height="512" fill="white"/>
<path d="M48 176C43.7565 176 39.6869 174.314 36.6863 171.314C33.6857 168.313 32 164.243 32 160V80C32 67.2696 37.0571 55.0606 46.0589 46.0589C55.0606 37.0571 67.2696 32 80 32H168C172.243 32 176.313 33.6857 179.314 36.6863C182.314 39.6869 184 43.7565 184 48C184 52.2435 182.314 56.3131 179.314 59.3137C176.313 62.3143 172.243 64 168 64H80C75.7565 64 71.6869 65.6857 68.6863 68.6863C65.6857 71.6869 64 75.7565 64 80V160C64 164.243 62.3143 168.313 59.3137 171.314C56.3131 174.314 52.2435 176 48 176ZM464 176C459.757 176 455.687 174.314 452.686 171.314C449.686 168.313 448 164.243 448 160V80C448 75.7565 446.314 71.6869 443.314 68.6863C440.313 65.6857 436.243 64 432 64H344C339.757 64 335.687 62.3143 332.686 59.3137C329.686 56.3131 328 52.2435 328 48C328 43.7565 329.686 39.6869 332.686 36.6863C335.687 33.6857 339.757 32 344 32H432C444.73 32 456.939 37.0571 465.941 46.0589C474.943 55.0606 480 67.2696 480 80V160C480 164.243 478.314 168.313 475.314 171.314C472.313 174.314 468.243 176 464 176ZM432 480H344C339.757 480 335.687 478.314 332.686 475.314C329.686 472.313 328 468.243 328 464C328 459.757 329.686 455.687 332.686 452.686C335.687 449.686 339.757 448 344 448H432C436.243 448 440.313 446.314 443.314 443.314C446.314 440.313 448 436.243 448 432V352C448 347.757 449.686 343.687 452.686 340.686C455.687 337.686 459.757 336 464 336C468.243 336 472.313 337.686 475.314 340.686C478.314 343.687 480 347.757 480 352V432C480 444.73 474.943 456.939 465.941 465.941C456.939 474.943 444.73 480 432 480ZM168 480H80C67.2696 480 55.0606 474.943 46.0589 465.941C37.0571 456.939 32 444.73 32 432V352C32 347.757 33.6857 343.687 36.6863 340.686C39.6869 337.686 43.7565 336 48 336C52.2435 336 56.3131 337.686 59.3137 340.686C62.3143 343.687 64 347.757 64 352V432C64 436.243 65.6857 440.313 68.6863 443.314C71.6869 446.314 75.7565 448 80 448H168C172.243 448 176.313 449.686 179.314 452.686C182.314 455.687 184 459.757 184 464C184 468.243 182.314 472.313 179.314 475.314C176.313 478.314 172.243 480 168 480Z" fill="#171938"/>
<path d="M464 272H48C43.7565 272 39.6869 270.314 36.6863 267.314C33.6857 264.313 32 260.243 32 256C32 251.757 33.6857 247.687 36.6863 244.686C39.6869 241.686 43.7565 240 48 240H464C468.243 240 472.313 241.686 475.314 244.686C478.314 247.687 480 251.757 480 256C480 260.243 478.314 264.313 475.314 267.314C472.313 270.314 468.243 272 464 272Z" fill="#4C46C8"/>
<path d="M177.457 209.742C185.514 209.706 191.422 207.916 195.182 204.371C198.941 200.862 200.821 195.437 200.821 188.097C200.821 181.544 199.282 175.099 196.202 168.761L195.128 166.612L197.438 165.807L206.729 162.584L208.663 161.886L209.415 163.819C213.032 172.771 214.84 180.882 214.84 188.15C214.804 195.133 213.515 201.202 210.973 206.358C205.243 217.817 193.91 223.528 176.974 223.492C165.694 223.492 157.118 220.789 151.246 215.382C145.374 210.011 142.42 202.097 142.384 191.642C142.384 183.728 144.228 175.278 147.916 166.29L148.775 164.303L150.763 165.162L159.249 168.653L161.236 169.459L160.431 171.446C157.53 178.787 156.098 185.554 156.134 191.749C156.17 197.908 157.888 202.438 161.29 205.338C164.728 208.274 170.117 209.742 177.457 209.742ZM168.81 160.221L176.651 152.379L177.457 151.573L178.263 152.379L186.104 160.274L186.91 161.08L186.104 161.886L178.316 169.674L177.511 170.479L176.705 169.674L168.81 161.832L168.004 161.026L168.81 160.221ZM252.062 192.071C252.097 194.399 252.008 195.938 251.793 196.69C251.256 198.23 250.271 199 248.839 199H247.711C240.191 199 234.48 196.816 230.577 192.447C226.674 188.043 224.723 181.741 224.723 173.541V123.912V121.764H226.871H236.217H238.365V123.912V173.434C238.365 177.48 239.117 180.398 240.621 182.188C242.161 183.943 244.578 184.82 247.872 184.82H248.839C249.269 184.82 249.645 184.892 249.967 185.035C250.325 185.178 250.629 185.34 250.88 185.519C251.095 185.698 251.274 185.984 251.417 186.378C251.596 186.736 251.721 187.04 251.793 187.291C251.865 187.506 251.918 187.864 251.954 188.365C252.026 188.831 252.062 189.153 252.062 189.332C252.062 189.511 252.062 189.851 252.062 190.353C252.062 190.818 252.062 191.069 252.062 191.104V192.071ZM291.378 178.644C291.557 177.748 291.646 176.638 291.646 175.313C291.646 174.776 291.629 174.257 291.593 173.756C291.593 173.219 291.575 172.682 291.539 172.145C291.503 171.607 291.467 171.07 291.432 170.533L291.163 167.257L290.948 165.162L293.043 164.947L301.852 163.873L304.107 163.658L304.269 165.86L305.128 178.321C305.164 179.002 305.235 179.628 305.343 180.201C305.486 180.738 305.629 181.24 305.772 181.705C305.951 182.135 306.166 182.529 306.417 182.887C306.703 183.209 307.008 183.495 307.33 183.746C307.652 183.997 308.01 184.194 308.404 184.337C308.834 184.48 309.299 184.588 309.801 184.659C310.302 184.731 310.839 184.767 311.412 184.767C313.382 184.767 314.85 184.086 315.816 182.726C316.783 181.329 317.267 178.894 317.267 175.421C317.267 171.948 316.515 167.579 315.011 162.315L314.366 160.221L316.515 159.63L325.699 157.159L327.687 156.622L328.277 158.609C330.139 164.482 331.052 169.96 331.017 175.045C331.017 175.117 331.017 175.17 331.017 175.206C331.017 175.242 331.017 175.296 331.017 175.367C330.981 184.14 328.564 190.639 323.766 194.864C320.65 197.586 316.604 198.946 311.627 198.946C309.658 198.946 307.831 198.731 306.148 198.302C304.501 197.872 302.997 197.228 301.637 196.368C300.276 195.473 299.112 194.363 298.146 193.038C294.314 197.013 289.337 199 283.214 199C276.303 198.964 271.326 197.013 268.282 193.146C264.63 197.049 258.919 199 251.148 199H248.141C246.386 199 245.079 198.338 244.22 197.013C243.325 195.688 242.877 194.059 242.877 192.125V191.104C242.877 189.35 243.342 187.864 244.273 186.646C245.169 185.429 246.458 184.82 248.141 184.82H251.256C254.586 184.82 257.075 184.319 258.722 183.316C260.369 182.278 261.407 180.72 261.837 178.644C262.016 177.748 262.105 176.638 262.105 175.313C262.105 174.812 262.088 174.311 262.052 173.81C262.052 173.272 262.034 172.735 261.998 172.198C261.962 171.661 261.926 171.106 261.891 170.533L261.568 167.257L261.407 165.162L263.448 164.947L272.311 163.873L274.566 163.658L274.728 165.86L275.587 178.321C275.73 180.613 276.393 182.278 277.574 183.316C278.756 184.319 280.672 184.82 283.321 184.82C285.756 184.82 287.6 184.337 288.854 183.37C290.107 182.403 290.948 180.828 291.378 178.644ZM347.828 129.552H357.12H359.269V131.485V197.013V198.946H357.12H347.828H345.68V197.013V131.485V129.552H347.828ZM347.882 120.099C346.091 119.848 344.373 120.117 342.726 120.904C341.078 121.656 339.467 122.945 337.892 124.771L337.14 125.685L336.334 124.825L330.855 118.004L330.265 117.413L330.748 116.661C335.26 110.216 340.774 107.512 347.291 108.551L355.294 109.84C358.552 110.377 362.258 109.589 366.412 107.477L367.379 106.993L367.862 108.014L371.407 116.393L371.783 117.252L370.978 117.789C366.179 120.797 360.987 121.907 355.401 121.119L347.882 120.099Z" fill="#171938"/>
<path d="M168.84 371.946C163.898 371.946 158.653 371.427 153.103 370.389L151.33 370.066V368.24V358.357V355.726L153.908 356.263C158.778 357.265 163.845 357.767 169.108 357.767C171.328 357.767 173.298 357.677 175.017 357.498C176.771 357.283 178.186 357.015 179.26 356.692C180.37 356.334 181.265 355.905 181.945 355.403C182.661 354.902 183.163 354.401 183.449 353.899C183.736 353.362 183.879 352.789 183.879 352.181C183.879 351.357 183.467 349.692 182.644 347.186C181.82 344.679 180.656 341.618 179.152 338.001L172.331 321.888L171.525 319.954L173.405 319.095L182.268 315.013L184.309 314.046L185.168 316.194L195.803 343.157C197.772 348.17 199.706 351.876 201.604 354.275C203.501 356.639 205.131 357.82 206.491 357.82H207.565C207.995 357.82 208.371 357.892 208.693 358.035C209.051 358.178 209.338 358.34 209.553 358.519C209.803 358.698 210 358.984 210.144 359.378C210.323 359.736 210.448 360.04 210.52 360.291C210.591 360.506 210.645 360.864 210.681 361.365C210.752 361.831 210.788 362.153 210.788 362.332C210.788 362.511 210.788 362.851 210.788 363.353C210.788 363.818 210.788 364.069 210.788 364.104V365.071C210.788 366.396 210.716 367.417 210.573 368.133C210.466 369.064 210.287 369.78 210.036 370.281V370.335L209.982 370.389C209.41 371.463 208.604 372 207.565 372H206.491C200.619 372 195.839 369.547 192.15 364.642C186.887 369.511 179.117 371.946 168.84 371.946ZM241.081 332.952C243.588 335.638 245.467 338.502 246.721 341.546C247.974 344.59 248.565 347.758 248.493 351.053C248.386 358.107 245.396 363.37 239.523 366.844C233.687 370.281 225.362 372 214.548 372H206.867C205.113 372 203.806 371.338 202.946 370.013C202.051 368.688 201.604 367.059 201.604 365.125V364.104C201.604 362.35 202.069 360.864 203 359.646C203.895 358.429 205.184 357.82 206.867 357.82H214.494C227.814 357.785 234.51 355.081 234.582 349.71C234.582 346.81 232.953 343.838 229.694 340.794C226.973 338.252 224.395 335.942 221.96 333.865C219.525 331.753 217.251 329.873 215.139 328.226C210.52 324.609 208.21 320.688 208.21 316.463C208.21 313.67 208.98 311.271 210.52 309.266C212.095 307.26 214.297 305.721 217.126 304.646L254.348 290.521L257.248 289.393V292.508V302.229V303.68L255.852 304.217L223.195 316.409C231.18 323.213 237.142 328.727 241.081 332.952ZM282.761 340.418C285.876 347.544 287.434 354.419 287.434 361.043C287.434 372 284.086 380.612 277.39 386.878C270.694 393.144 260.882 396.958 247.956 398.318L246.076 398.533L245.646 396.707L243.337 387.576L242.746 385.159L245.217 384.891C254.992 383.924 262.189 381.507 266.809 377.64C271.428 373.808 273.719 368.491 273.684 361.688C273.684 356.531 272.359 351.106 269.709 345.413L268.688 343.265L270.944 342.459L280.075 339.29L281.955 338.592L282.761 340.418ZM324.226 365.071C324.261 367.399 324.172 368.938 323.957 369.69C323.42 371.23 322.435 372 321.003 372H319.875C312.355 372 306.644 369.816 302.741 365.447C298.838 361.043 296.887 354.741 296.887 346.541V296.912V294.764H299.035H308.381H310.529V296.912V346.434C310.529 350.48 311.281 353.398 312.785 355.188C314.325 356.943 316.742 357.82 320.036 357.82H321.003C321.433 357.82 321.809 357.892 322.131 358.035C322.489 358.178 322.793 358.34 323.044 358.519C323.259 358.698 323.438 358.984 323.581 359.378C323.76 359.736 323.885 360.04 323.957 360.291C324.029 360.506 324.082 360.864 324.118 361.365C324.19 361.831 324.226 362.153 324.226 362.332C324.226 362.511 324.226 362.851 324.226 363.353C324.226 363.818 324.226 364.069 324.226 364.104V365.071ZM324.387 372H320.305C318.55 372 317.243 371.338 316.384 370.013C315.489 368.688 315.041 367.059 315.041 365.125V364.104C315.041 362.35 315.507 360.864 316.438 359.646C317.333 358.429 318.622 357.82 320.305 357.82H324.387C329.722 357.82 333.249 357.337 334.968 356.37C337.295 355.009 338.459 351.894 338.459 347.024C338.459 342.942 337.832 338.377 336.579 333.328L336.042 331.233L338.137 330.75L346.892 328.548L348.825 328.011L349.47 329.944C351.26 335.745 352.155 341.385 352.155 346.863C352.119 356.352 349.326 363.209 343.776 367.435C342.702 368.222 341.485 368.921 340.124 369.529C338.799 370.102 337.313 370.568 335.666 370.926C334.055 371.284 332.318 371.552 330.456 371.731C328.594 371.91 326.571 372 324.387 372ZM326.428 388.221L334.27 380.379L335.075 379.573L335.881 380.379L343.723 388.274L344.528 389.08L343.723 389.886L335.935 397.674L335.129 398.479L334.323 397.674L326.428 389.832L325.622 389.026L326.428 388.221Z" fill="#171938"/>
</g>
<defs>
<clipPath id="clip0_1_4">
<rect width="512" height="512" fill="white"/>
</clipPath>
</defs>
</svg>
